<svg width="601" height="601" viewBox="0 0 601 601" fill="none" xmlns="http://www.w3.org/2000/svg">
<path d="M593.5 301C593.5 462.531 462.331 593.5 300.5 593.5C138.669 593.5 7.5 462.531 7.5 301C7.5 139.468 138.669 8.5 300.5 8.5C462.331 8.5 593.5 139.468 593.5 301Z" stroke="black" stroke-width="15"/>
<path d="M341 177H213V289H341" stroke="black" stroke-width="15"/>
<path d="M363 313H213V425H363" stroke="black" stroke-width="15"/>
<path d="M341 177C347.96 177 354.852 178.448 361.282 181.263C367.713 184.077 373.555 188.202 378.477 193.402C383.398 198.602 387.302 204.776 389.966 211.57C392.629 218.364 394 225.646 394 233C394 240.354 392.629 247.636 389.966 254.43C387.302 261.225 383.398 267.398 378.477 272.598C373.555 277.798 367.712 281.923 361.282 284.737C354.852 287.552 347.96 289 341 289" stroke="black" stroke-width="15"/>
<path d="M363 313C369.96 313 376.852 314.448 383.282 317.263C389.713 320.077 395.555 324.202 400.477 329.402C405.398 334.602 409.302 340.776 411.966 347.57C414.629 354.364 416 361.646 416 369C416 376.354 414.629 383.636 411.966 390.43C409.302 397.225 405.398 403.398 400.477 408.598C395.555 413.798 389.712 417.923 383.282 420.737C376.852 423.552 369.96 425 363 425" stroke="black" stroke-width="15"/>
</svg>
